<svg width="1920" height="1096" viewBox="0 0 1920 1096" fill="none" xmlns="http://www.w3.org/2000/svg">
<rect width="1920" height="1096" fill="#242424"/>
<rect width="1920" height="1080" fill="#FEFEFE"/>
<rect x="10" y="10" width="428" height="1060" rx="37" fill="url(#paint0_linear_11_4)"/>
<g opacity="0.16" filter="url(#filter0_dd_11_4)">
<rect x="459" y="10" width="703" height="458" rx="37" fill="#434343"/>
</g>
<g opacity="0.16" filter="url(#filter1_dd_11_4)">
<rect x="459" y="496" width="1427" height="574" rx="37" fill="#434343"/>
</g>
<g opacity="0.16" filter="url(#filter2_dd_11_4)">
<rect x="1183" y="10" width="703" height="458" rx="37" fill="#434343"/>
</g>
<path opacity="0.24" d="M71.1591 1031.42V1029.55H84.25V1031.42H78.7614V1047H76.6477V1031.42H71.1591ZM90.8295 1047.27C89.5682 1047.27 88.4801 1046.99 87.5653 1046.44C86.6562 1045.88 85.9545 1045.09 85.4602 1044.09C84.9716 1043.07 84.7273 1041.9 84.7273 1040.56C84.7273 1039.22 84.9716 1038.03 85.4602 1037.01C85.9545 1035.98 86.642 1035.18 87.5227 1034.61C88.4091 1034.03 89.4432 1033.74 90.625 1033.74C91.3068 1033.74 91.9801 1033.85 92.6449 1034.08C93.3097 1034.31 93.9148 1034.68 94.4602 1035.19C95.0057 1035.69 95.4403 1036.36 95.7642 1037.2C96.0881 1038.03 96.25 1039.06 96.25 1040.28V1041.14H86.1591V1039.4H94.2045C94.2045 1038.66 94.0568 1038 93.7614 1037.42C93.4716 1036.84 93.0568 1036.38 92.517 1036.05C91.983 1035.71 91.3523 1035.55 90.625 1035.55C89.8239 1035.55 89.1307 1035.74 88.5455 1036.14C87.9659 1036.53 87.5199 1037.05 87.2074 1037.68C86.8949 1038.31 86.7386 1038.98 86.7386 1039.7V1040.86C86.7386 1041.85 86.9091 1042.69 87.25 1043.38C87.5966 1044.06 88.0767 1044.58 88.6903 1044.94C89.304 1045.29 90.017 1045.47 90.8295 1045.47C91.358 1045.47 91.8352 1045.39 92.2614 1045.24C92.6932 1045.09 93.0653 1044.86 93.3778 1044.56C93.6903 1044.26 93.9318 1043.87 94.1023 1043.42L96.0455 1043.97C95.8409 1044.62 95.4972 1045.2 95.0142 1045.7C94.5313 1046.2 93.9347 1046.59 93.2244 1046.86C92.5142 1047.14 91.7159 1047.27 90.8295 1047.27ZM99.3097 1047V1033.91H101.253V1035.95H101.423C101.696 1035.26 102.136 1034.71 102.744 1034.33C103.352 1033.93 104.082 1033.74 104.935 1033.74C105.798 1033.74 106.517 1033.93 107.091 1034.33C107.67 1034.71 108.122 1035.26 108.446 1035.95H108.582C108.918 1035.28 109.42 1034.74 110.091 1034.34C110.761 1033.94 111.565 1033.74 112.503 1033.74C113.673 1033.74 114.631 1034.11 115.375 1034.84C116.119 1035.57 116.491 1036.7 116.491 1038.24V1047H114.48V1038.24C114.48 1037.27 114.216 1036.58 113.688 1036.17C113.159 1035.75 112.537 1035.55 111.821 1035.55C110.901 1035.55 110.188 1035.82 109.682 1036.38C109.176 1036.93 108.923 1037.63 108.923 1038.48V1047H106.878V1038.03C106.878 1037.29 106.636 1036.69 106.153 1036.24C105.67 1035.78 105.048 1035.55 104.287 1035.55C103.764 1035.55 103.276 1035.68 102.821 1035.96C102.372 1036.24 102.009 1036.63 101.73 1037.12C101.457 1037.61 101.321 1038.18 101.321 1038.82V1047H99.3097ZM120.169 1051.91V1033.91H122.112V1035.99H122.351C122.499 1035.76 122.703 1035.47 122.964 1035.12C123.232 1034.76 123.612 1034.44 124.107 1034.16C124.607 1033.88 125.283 1033.74 126.135 1033.74C127.237 1033.74 128.209 1034.01 129.05 1034.57C129.891 1035.12 130.547 1035.9 131.018 1036.91C131.49 1037.92 131.726 1039.11 131.726 1040.49C131.726 1041.88 131.49 1043.08 131.018 1044.09C130.547 1045.11 129.893 1045.89 129.058 1046.45C128.223 1047 127.26 1047.27 126.169 1047.27C125.328 1047.27 124.655 1047.13 124.149 1046.86C123.643 1046.57 123.254 1046.25 122.982 1045.89C122.709 1045.53 122.499 1045.23 122.351 1044.99H122.18V1051.91H120.169ZM122.146 1040.45C122.146 1041.44 122.291 1042.32 122.581 1043.07C122.871 1043.82 123.294 1044.41 123.851 1044.84C124.408 1045.26 125.089 1045.47 125.896 1045.47C126.737 1045.47 127.439 1045.24 128.001 1044.8C128.57 1044.35 128.996 1043.75 129.28 1042.99C129.57 1042.23 129.714 1041.39 129.714 1040.45C129.714 1039.53 129.572 1038.7 129.288 1037.97C129.01 1037.22 128.587 1036.63 128.018 1036.2C127.456 1035.76 126.749 1035.55 125.896 1035.55C125.078 1035.55 124.391 1035.75 123.834 1036.17C123.277 1036.58 122.857 1037.15 122.572 1037.89C122.288 1038.62 122.146 1039.48 122.146 1040.45ZM136.805 1029.55V1047H134.794V1029.55H136.805ZM144.342 1047.31C143.512 1047.31 142.759 1047.15 142.083 1046.84C141.407 1046.52 140.87 1046.06 140.472 1045.47C140.075 1044.86 139.876 1044.14 139.876 1043.28C139.876 1042.53 140.023 1041.93 140.319 1041.46C140.614 1040.99 141.009 1040.62 141.504 1040.35C141.998 1040.09 142.543 1039.89 143.14 1039.76C143.742 1039.62 144.347 1039.51 144.955 1039.43C145.751 1039.33 146.396 1039.25 146.89 1039.2C147.39 1039.14 147.754 1039.05 147.981 1038.92C148.214 1038.79 148.33 1038.56 148.33 1038.24V1038.17C148.33 1037.33 148.1 1036.68 147.64 1036.21C147.185 1035.74 146.495 1035.51 145.569 1035.51C144.609 1035.51 143.856 1035.72 143.31 1036.14C142.765 1036.56 142.381 1037.01 142.16 1037.49L140.251 1036.81C140.592 1036.01 141.046 1035.39 141.614 1034.95C142.188 1034.5 142.813 1034.19 143.489 1034.01C144.171 1033.83 144.842 1033.74 145.501 1033.74C145.921 1033.74 146.404 1033.79 146.95 1033.89C147.501 1033.99 148.032 1034.19 148.543 1034.5C149.06 1034.8 149.489 1035.27 149.83 1035.89C150.171 1036.51 150.342 1037.34 150.342 1038.38V1047H148.33V1045.23H148.228C148.092 1045.51 147.864 1045.82 147.546 1046.14C147.228 1046.46 146.805 1046.74 146.276 1046.97C145.748 1047.19 145.103 1047.31 144.342 1047.31ZM144.648 1045.5C145.444 1045.5 146.114 1045.34 146.66 1045.03C147.211 1044.72 147.626 1044.32 147.904 1043.82C148.188 1043.33 148.33 1042.81 148.33 1042.26V1040.42C148.245 1040.52 148.058 1040.62 147.768 1040.7C147.484 1040.78 147.154 1040.85 146.779 1040.91C146.41 1040.97 146.049 1041.02 145.697 1041.07C145.35 1041.11 145.069 1041.14 144.853 1041.17C144.33 1041.24 143.842 1041.35 143.387 1041.5C142.938 1041.65 142.575 1041.87 142.296 1042.18C142.023 1042.47 141.887 1042.87 141.887 1043.39C141.887 1044.09 142.146 1044.61 142.663 1044.97C143.185 1045.32 143.847 1045.5 144.648 1045.5ZM159.706 1033.91V1035.61H152.922V1033.91H159.706ZM154.899 1030.77H156.911V1043.25C156.911 1043.82 156.993 1044.24 157.158 1044.53C157.328 1044.81 157.544 1044.99 157.805 1045.09C158.072 1045.18 158.354 1045.23 158.649 1045.23C158.871 1045.23 159.053 1045.22 159.195 1045.19C159.337 1045.16 159.45 1045.14 159.536 1045.12L159.945 1046.93C159.808 1046.98 159.618 1047.03 159.374 1047.09C159.129 1047.14 158.82 1047.17 158.445 1047.17C157.876 1047.17 157.32 1047.05 156.774 1046.8C156.234 1046.56 155.786 1046.19 155.428 1045.69C155.075 1045.19 154.899 1044.56 154.899 1043.8V1030.77ZM168.08 1047.27C166.818 1047.27 165.73 1046.99 164.815 1046.44C163.906 1045.88 163.205 1045.09 162.71 1044.09C162.222 1043.07 161.977 1041.9 161.977 1040.56C161.977 1039.22 162.222 1038.03 162.71 1037.01C163.205 1035.98 163.892 1035.18 164.773 1034.61C165.659 1034.03 166.693 1033.74 167.875 1033.74C168.557 1033.74 169.23 1033.85 169.895 1034.08C170.56 1034.31 171.165 1034.68 171.71 1035.19C172.256 1035.69 172.69 1036.36 173.014 1037.2C173.338 1038.03 173.5 1039.06 173.5 1040.28V1041.14H163.409V1039.4H171.455C171.455 1038.66 171.307 1038 171.011 1037.42C170.722 1036.84 170.307 1036.38 169.767 1036.05C169.233 1035.71 168.602 1035.55 167.875 1035.55C167.074 1035.55 166.381 1035.74 165.795 1036.14C165.216 1036.53 164.77 1037.05 164.457 1037.68C164.145 1038.31 163.989 1038.98 163.989 1039.7V1040.86C163.989 1041.85 164.159 1042.69 164.5 1043.38C164.847 1044.06 165.327 1044.58 165.94 1044.94C166.554 1045.29 167.267 1045.47 168.08 1045.47C168.608 1045.47 169.085 1045.39 169.511 1045.24C169.943 1045.09 170.315 1044.86 170.628 1044.56C170.94 1044.26 171.182 1043.87 171.352 1043.42L173.295 1043.97C173.091 1044.62 172.747 1045.2 172.264 1045.7C171.781 1046.2 171.185 1046.59 170.474 1046.86C169.764 1047.14 168.966 1047.27 168.08 1047.27ZM183.582 1047V1029.55H189.685C190.901 1029.55 191.903 1029.76 192.693 1030.18C193.483 1030.59 194.071 1031.15 194.457 1031.86C194.844 1032.55 195.037 1033.33 195.037 1034.18C195.037 1034.93 194.903 1035.55 194.636 1036.04C194.375 1036.53 194.028 1036.91 193.597 1037.2C193.17 1037.48 192.707 1037.69 192.207 1037.83V1038C192.741 1038.03 193.278 1038.22 193.818 1038.56C194.358 1038.9 194.81 1039.39 195.173 1040.03C195.537 1040.66 195.719 1041.44 195.719 1042.36C195.719 1043.24 195.52 1044.03 195.122 1044.72C194.724 1045.42 194.097 1045.98 193.239 1046.39C192.381 1046.8 191.264 1047 189.889 1047H183.582ZM185.696 1045.12H189.889C191.27 1045.12 192.25 1044.86 192.83 1044.32C193.415 1043.78 193.707 1043.13 193.707 1042.36C193.707 1041.77 193.557 1041.23 193.256 1040.73C192.955 1040.22 192.526 1039.82 191.969 1039.52C191.412 1039.21 190.753 1039.06 189.991 1039.06H185.696V1045.12ZM185.696 1037.22H189.616C190.253 1037.22 190.827 1037.09 191.338 1036.84C191.855 1036.59 192.264 1036.24 192.565 1035.78C192.872 1035.33 193.026 1034.8 193.026 1034.18C193.026 1033.41 192.759 1032.76 192.224 1032.23C191.69 1031.69 190.844 1031.42 189.685 1031.42H185.696V1037.22ZM200.214 1051.91C199.874 1051.91 199.57 1051.88 199.303 1051.82C199.036 1051.77 198.851 1051.72 198.749 1051.67L199.26 1049.9C199.749 1050.02 200.18 1050.07 200.555 1050.03C200.93 1050 201.263 1049.83 201.553 1049.53C201.848 1049.24 202.118 1048.76 202.362 1048.09L202.737 1047.07L197.896 1033.91H200.078L203.692 1044.34H203.828L207.442 1033.91H209.624L204.067 1048.91C203.817 1049.59 203.507 1050.14 203.138 1050.59C202.768 1051.04 202.339 1051.37 201.851 1051.59C201.368 1051.8 200.822 1051.91 200.214 1051.91ZM218.347 1031.42V1029.55H231.438V1031.42H225.949V1047H223.835V1031.42H218.347ZM236.438 1039.12V1047H234.427V1029.55H236.438V1035.95H236.609C236.915 1035.28 237.376 1034.74 237.989 1034.34C238.609 1033.94 239.433 1033.74 240.461 1033.74C241.353 1033.74 242.134 1033.92 242.805 1034.28C243.475 1034.63 243.995 1035.17 244.364 1035.9C244.739 1036.63 244.927 1037.56 244.927 1038.68V1047H242.915V1038.82C242.915 1037.78 242.646 1036.97 242.106 1036.41C241.572 1035.83 240.83 1035.55 239.881 1035.55C239.222 1035.55 238.631 1035.68 238.109 1035.96C237.592 1036.24 237.183 1036.65 236.881 1037.18C236.586 1037.72 236.438 1038.36 236.438 1039.12ZM252.459 1047.31C251.629 1047.31 250.876 1047.15 250.2 1046.84C249.524 1046.52 248.987 1046.06 248.589 1045.47C248.192 1044.86 247.993 1044.14 247.993 1043.28C247.993 1042.53 248.141 1041.93 248.436 1041.46C248.732 1040.99 249.126 1040.62 249.621 1040.35C250.115 1040.09 250.661 1039.89 251.257 1039.76C251.859 1039.62 252.464 1039.51 253.072 1039.43C253.868 1039.33 254.513 1039.25 255.007 1039.2C255.507 1039.14 255.871 1039.05 256.098 1038.92C256.331 1038.79 256.447 1038.56 256.447 1038.24V1038.17C256.447 1037.33 256.217 1036.68 255.757 1036.21C255.303 1035.74 254.612 1035.51 253.686 1035.51C252.726 1035.51 251.973 1035.72 251.428 1036.14C250.882 1036.56 250.499 1037.01 250.277 1037.49L248.368 1036.81C248.709 1036.01 249.163 1035.39 249.732 1034.95C250.305 1034.5 250.93 1034.19 251.607 1034.01C252.288 1033.83 252.959 1033.74 253.618 1033.74C254.038 1033.74 254.521 1033.79 255.067 1033.89C255.618 1033.99 256.149 1034.19 256.661 1034.5C257.178 1034.8 257.607 1035.27 257.947 1035.89C258.288 1036.51 258.459 1037.34 258.459 1038.38V1047H256.447V1045.23H256.345C256.209 1045.51 255.982 1045.82 255.663 1046.14C255.345 1046.46 254.922 1046.74 254.393 1046.97C253.865 1047.19 253.22 1047.31 252.459 1047.31ZM252.766 1045.5C253.561 1045.5 254.232 1045.34 254.777 1045.03C255.328 1044.72 255.743 1044.32 256.021 1043.82C256.305 1043.33 256.447 1042.81 256.447 1042.26V1040.42C256.362 1040.52 256.175 1040.62 255.885 1040.7C255.601 1040.78 255.271 1040.85 254.896 1040.91C254.527 1040.97 254.166 1041.02 253.814 1041.07C253.467 1041.11 253.186 1041.14 252.97 1041.17C252.447 1041.24 251.959 1041.35 251.504 1041.5C251.055 1041.65 250.692 1041.87 250.413 1042.18C250.141 1042.47 250.004 1042.87 250.004 1043.39C250.004 1044.09 250.263 1044.61 250.78 1044.97C251.303 1045.32 251.964 1045.5 252.766 1045.5ZM267.073 1047.27C265.982 1047.27 265.019 1047 264.184 1046.45C263.349 1045.89 262.695 1045.11 262.224 1044.09C261.752 1043.08 261.516 1041.88 261.516 1040.49C261.516 1039.11 261.752 1037.92 262.224 1036.91C262.695 1035.9 263.352 1035.12 264.192 1034.57C265.033 1034.01 266.005 1033.74 267.107 1033.74C267.96 1033.74 268.633 1033.88 269.127 1034.16C269.627 1034.44 270.008 1034.76 270.269 1035.12C270.536 1035.47 270.744 1035.76 270.891 1035.99H271.062V1029.55H273.073V1047H271.13V1044.99H270.891C270.744 1045.23 270.533 1045.53 270.261 1045.89C269.988 1046.25 269.599 1046.57 269.093 1046.86C268.587 1047.13 267.914 1047.27 267.073 1047.27ZM267.346 1045.47C268.153 1045.47 268.835 1045.26 269.391 1044.84C269.948 1044.41 270.371 1043.82 270.661 1043.07C270.951 1042.32 271.096 1041.44 271.096 1040.45C271.096 1039.48 270.954 1038.62 270.67 1037.89C270.386 1037.15 269.965 1036.58 269.408 1036.17C268.852 1035.75 268.164 1035.55 267.346 1035.55C266.494 1035.55 265.783 1035.76 265.215 1036.2C264.653 1036.63 264.229 1037.22 263.945 1037.97C263.667 1038.7 263.528 1039.53 263.528 1040.45C263.528 1041.39 263.67 1042.23 263.954 1042.99C264.244 1043.75 264.67 1044.35 265.232 1044.8C265.8 1045.24 266.505 1045.47 267.346 1045.47ZM281.979 1047.27C280.888 1047.27 279.925 1047 279.09 1046.45C278.255 1045.89 277.602 1045.11 277.13 1044.09C276.658 1043.08 276.423 1041.88 276.423 1040.49C276.423 1039.11 276.658 1037.92 277.13 1036.91C277.602 1035.9 278.258 1035.12 279.099 1034.57C279.94 1034.01 280.911 1033.74 282.013 1033.74C282.866 1033.74 283.539 1033.88 284.033 1034.16C284.533 1034.44 284.914 1034.76 285.175 1035.12C285.442 1035.47 285.65 1035.76 285.798 1035.99H285.968V1029.55H287.979V1047H286.036V1044.99H285.798C285.65 1045.23 285.44 1045.53 285.167 1045.89C284.894 1046.25 284.505 1046.57 283.999 1046.86C283.494 1047.13 282.82 1047.27 281.979 1047.27ZM282.252 1045.47C283.059 1045.47 283.741 1045.26 284.298 1044.84C284.854 1044.41 285.278 1043.82 285.567 1043.07C285.857 1042.32 286.002 1041.44 286.002 1040.45C286.002 1039.48 285.86 1038.62 285.576 1037.89C285.292 1037.15 284.871 1036.58 284.315 1036.17C283.758 1035.75 283.07 1035.55 282.252 1035.55C281.4 1035.55 280.69 1035.76 280.121 1036.2C279.559 1036.63 279.136 1037.22 278.852 1037.97C278.573 1038.7 278.434 1039.53 278.434 1040.45C278.434 1041.39 278.576 1042.23 278.86 1042.99C279.15 1043.75 279.576 1044.35 280.138 1044.8C280.707 1045.24 281.411 1045.47 282.252 1045.47ZM297.431 1047.27C296.17 1047.27 295.082 1046.99 294.167 1046.44C293.258 1045.88 292.556 1045.09 292.062 1044.09C291.573 1043.07 291.329 1041.9 291.329 1040.56C291.329 1039.22 291.573 1038.03 292.062 1037.01C292.556 1035.98 293.244 1035.18 294.124 1034.61C295.011 1034.03 296.045 1033.74 297.227 1033.74C297.908 1033.74 298.582 1033.85 299.246 1034.08C299.911 1034.31 300.516 1034.68 301.062 1035.19C301.607 1035.69 302.042 1036.36 302.366 1037.2C302.69 1038.03 302.852 1039.06 302.852 1040.28V1041.14H292.761V1039.4H300.806C300.806 1038.66 300.658 1038 300.363 1037.42C300.073 1036.84 299.658 1036.38 299.119 1036.05C298.585 1035.71 297.954 1035.55 297.227 1035.55C296.425 1035.55 295.732 1035.74 295.147 1036.14C294.567 1036.53 294.121 1037.05 293.809 1037.68C293.496 1038.31 293.34 1038.98 293.34 1039.7V1040.86C293.34 1041.85 293.511 1042.69 293.852 1043.38C294.198 1044.06 294.678 1044.58 295.292 1044.94C295.906 1045.29 296.619 1045.47 297.431 1045.47C297.96 1045.47 298.437 1045.39 298.863 1045.24C299.295 1045.09 299.667 1044.86 299.979 1044.56C300.292 1044.26 300.533 1043.87 300.704 1043.42L302.647 1043.97C302.442 1044.62 302.099 1045.2 301.616 1045.7C301.133 1046.2 300.536 1046.59 299.826 1046.86C299.116 1047.14 298.317 1047.27 297.431 1047.27ZM314.161 1041.65V1033.91H316.173V1047H314.161V1044.78H314.025C313.718 1045.45 313.241 1046.01 312.593 1046.48C311.945 1046.94 311.127 1047.17 310.138 1047.17C309.32 1047.17 308.593 1046.99 307.957 1046.63C307.32 1046.27 306.82 1045.72 306.457 1045C306.093 1044.26 305.911 1043.34 305.911 1042.23V1033.91H307.923V1042.09C307.923 1043.05 308.19 1043.81 308.724 1044.38C309.263 1044.94 309.951 1045.23 310.786 1045.23C311.286 1045.23 311.795 1045.1 312.312 1044.84C312.835 1044.59 313.272 1044.2 313.624 1043.67C313.982 1043.14 314.161 1042.47 314.161 1041.65ZM329.129 1036.84L327.322 1037.35C327.209 1037.05 327.041 1036.76 326.82 1036.47C326.604 1036.18 326.308 1035.95 325.933 1035.76C325.558 1035.57 325.078 1035.48 324.493 1035.48C323.692 1035.48 323.024 1035.66 322.49 1036.03C321.962 1036.39 321.697 1036.86 321.697 1037.42C321.697 1037.92 321.879 1038.32 322.243 1038.61C322.607 1038.89 323.175 1039.14 323.947 1039.33L325.891 1039.81C327.061 1040.09 327.933 1040.53 328.507 1041.11C329.081 1041.69 329.368 1042.44 329.368 1043.35C329.368 1044.1 329.152 1044.77 328.72 1045.36C328.294 1045.95 327.697 1046.42 326.93 1046.76C326.163 1047.1 325.271 1047.27 324.254 1047.27C322.919 1047.27 321.814 1046.98 320.939 1046.4C320.064 1045.82 319.51 1044.98 319.277 1043.86L321.186 1043.39C321.368 1044.09 321.712 1044.62 322.217 1044.97C322.729 1045.32 323.396 1045.5 324.22 1045.5C325.158 1045.5 325.902 1045.3 326.453 1044.9C327.01 1044.5 327.288 1044.02 327.288 1043.45C327.288 1043 327.129 1042.62 326.811 1042.31C326.493 1042 326.004 1041.77 325.345 1041.61L323.163 1041.1C321.964 1040.82 321.084 1040.38 320.521 1039.78C319.964 1039.18 319.686 1038.43 319.686 1037.52C319.686 1036.78 319.893 1036.13 320.308 1035.56C320.729 1034.99 321.3 1034.55 322.021 1034.22C322.749 1033.9 323.572 1033.74 324.493 1033.74C325.788 1033.74 326.805 1034.02 327.544 1034.59C328.288 1035.16 328.817 1035.91 329.129 1036.84ZM339.418 1047V1029.55H341.532V1045.12H349.646V1047H339.418ZM358.134 1047.27C356.873 1047.27 355.785 1046.99 354.87 1046.44C353.961 1045.88 353.259 1045.09 352.765 1044.09C352.276 1043.07 352.032 1041.9 352.032 1040.56C352.032 1039.22 352.276 1038.03 352.765 1037.01C353.259 1035.98 353.947 1035.18 354.827 1034.61C355.714 1034.03 356.748 1033.74 357.93 1033.74C358.612 1033.74 359.285 1033.85 359.95 1034.08C360.614 1034.31 361.219 1034.68 361.765 1035.19C362.31 1035.69 362.745 1036.36 363.069 1037.2C363.393 1038.03 363.555 1039.06 363.555 1040.28V1041.14H353.464V1039.4H361.509C361.509 1038.66 361.362 1038 361.066 1037.42C360.776 1036.84 360.362 1036.38 359.822 1036.05C359.288 1035.71 358.657 1035.55 357.93 1035.55C357.129 1035.55 356.435 1035.74 355.85 1036.14C355.271 1036.53 354.825 1037.05 354.512 1037.68C354.2 1038.31 354.043 1038.98 354.043 1039.7V1040.86C354.043 1041.85 354.214 1042.69 354.555 1043.38C354.901 1044.06 355.381 1044.58 355.995 1044.94C356.609 1045.29 357.322 1045.47 358.134 1045.47C358.663 1045.47 359.14 1045.39 359.566 1045.24C359.998 1045.09 360.37 1044.86 360.683 1044.56C360.995 1044.26 361.237 1043.87 361.407 1043.42L363.35 1043.97C363.146 1044.62 362.802 1045.2 362.319 1045.7C361.836 1046.2 361.239 1046.59 360.529 1046.86C359.819 1047.14 359.021 1047.27 358.134 1047.27ZM372.103 1047.27C370.842 1047.27 369.754 1046.99 368.839 1046.44C367.93 1045.88 367.228 1045.09 366.734 1044.09C366.245 1043.07 366.001 1041.9 366.001 1040.56C366.001 1039.22 366.245 1038.03 366.734 1037.01C367.228 1035.98 367.915 1035.18 368.796 1034.61C369.683 1034.03 370.717 1033.74 371.898 1033.74C372.58 1033.74 373.254 1033.85 373.918 1034.08C374.583 1034.31 375.188 1034.68 375.734 1035.19C376.279 1035.69 376.714 1036.36 377.038 1037.2C377.362 1038.03 377.523 1039.06 377.523 1040.28V1041.14H367.433V1039.4H375.478C375.478 1038.66 375.33 1038 375.035 1037.42C374.745 1036.84 374.33 1036.38 373.79 1036.05C373.256 1035.71 372.626 1035.55 371.898 1035.55C371.097 1035.55 370.404 1035.74 369.819 1036.14C369.239 1036.53 368.793 1037.05 368.481 1037.68C368.168 1038.31 368.012 1038.98 368.012 1039.7V1040.86C368.012 1041.85 368.183 1042.69 368.523 1043.38C368.87 1044.06 369.35 1044.58 369.964 1044.94C370.577 1045.29 371.29 1045.47 372.103 1045.47C372.631 1045.47 373.109 1045.39 373.535 1045.24C373.967 1045.09 374.339 1044.86 374.651 1044.56C374.964 1044.26 375.205 1043.87 375.376 1043.42L377.319 1043.97C377.114 1044.62 376.771 1045.2 376.288 1045.7C375.805 1046.2 375.208 1046.59 374.498 1046.86C373.788 1047.14 372.989 1047.27 372.103 1047.27Z" fill="black"/>
<defs>
<filter id="filter0_dd_11_4" x="441" y="0" width="739" height="494" filterUnits="userSpaceOnUse" color-interpolation-filters="sRGB">
<feFlood flood-opacity="0" result="BackgroundImageFix"/>
<feColorMatrix in="SourceAlpha" type="matrix" values="0 0 0 0 0 0 0 0 0 0 0 0 0 0 0 0 0 0 127 0" result="hardAlpha"/>
<feOffset dy="4"/>
<feGaussianBlur stdDeviation="2"/>
<feColorMatrix type="matrix" values="0 0 0 0 0 0 0 0 0 0 0 0 0 0 0 0 0 0 0.3 0"/>
<feBlend mode="normal" in2="BackgroundImageFix" result="effect1_dropShadow_11_4"/>
<feColorMatrix in="SourceAlpha" type="matrix" values="0 0 0 0 0 0 0 0 0 0 0 0 0 0 0 0 0 0 127 0" result="hardAlpha"/>
<feMorphology radius="6" operator="dilate" in="SourceAlpha" result="effect2_dropShadow_11_4"/>
<feOffset dy="8"/>
<feGaussianBlur stdDeviation="6"/>
<feColorMatrix type="matrix" values="0 0 0 0 0 0 0 0 0 0 0 0 0 0 0 0 0 0 0.15 0"/>
<feBlend mode="normal" in2="effect1_dropShadow_11_4" result="effect2_dropShadow_11_4"/>
<feBlend mode="normal" in="SourceGraphic" in2="effect2_dropShadow_11_4" result="shape"/>
</filter>
<filter id="filter1_dd_11_4" x="441" y="486" width="1463" height="610" filterUnits="userSpaceOnUse" color-interpolation-filters="sRGB">
<feFlood flood-opacity="0" result="BackgroundImageFix"/>
<feColorMatrix in="SourceAlpha" type="matrix" values="0 0 0 0 0 0 0 0 0 0 0 0 0 0 0 0 0 0 127 0" result="hardAlpha"/>
<feOffset dy="4"/>
<feGaussianBlur stdDeviation="2"/>
<feColorMatrix type="matrix" values="0 0 0 0 0 0 0 0 0 0 0 0 0 0 0 0 0 0 0.3 0"/>
<feBlend mode="normal" in2="BackgroundImageFix" result="effect1_dropShadow_11_4"/>
<feColorMatrix in="SourceAlpha" type="matrix" values="0 0 0 0 0 0 0 0 0 0 0 0 0 0 0 0 0 0 127 0" result="hardAlpha"/>
<feMorphology radius="6" operator="dilate" in="SourceAlpha" result="effect2_dropShadow_11_4"/>
<feOffset dy="8"/>
<feGaussianBlur stdDeviation="6"/>
<feColorMatrix type="matrix" values="0 0 0 0 0 0 0 0 0 0 0 0 0 0 0 0 0 0 0.15 0"/>
<feBlend mode="normal" in2="effect1_dropShadow_11_4" result="effect2_dropShadow_11_4"/>
<feBlend mode="normal" in="SourceGraphic" in2="effect2_dropShadow_11_4" result="shape"/>
</filter>
<filter id="filter2_dd_11_4" x="1165" y="0" width="739" height="494" filterUnits="userSpaceOnUse" color-interpolation-filters="sRGB">
<feFlood flood-opacity="0" result="BackgroundImageFix"/>
<feColorMatrix in="SourceAlpha" type="matrix" values="0 0 0 0 0 0 0 0 0 0 0 0 0 0 0 0 0 0 127 0" result="hardAlpha"/>
<feOffset dy="4"/>
<feGaussianBlur stdDeviation="2"/>
<feColorMatrix type="matrix" values="0 0 0 0 0 0 0 0 0 0 0 0 0 0 0 0 0 0 0.3 0"/>
<feBlend mode="normal" in2="BackgroundImageFix" result="effect1_dropShadow_11_4"/>
<feColorMatrix in="SourceAlpha" type="matrix" values="0 0 0 0 0 0 0 0 0 0 0 0 0 0 0 0 0 0 127 0" result="hardAlpha"/>
<feMorphology radius="6" operator="dilate" in="SourceAlpha" result="effect2_dropShadow_11_4"/>
<feOffset dy="8"/>
<feGaussianBlur stdDeviation="6"/>
<feColorMatrix type="matrix" values="0 0 0 0 0 0 0 0 0 0 0 0 0 0 0 0 0 0 0.15 0"/>
<feBlend mode="normal" in2="effect1_dropShadow_11_4" result="effect2_dropShadow_11_4"/>
<feBlend mode="normal" in="SourceGraphic" in2="effect2_dropShadow_11_4" result="shape"/>
</filter>
<linearGradient id="paint0_linear_11_4" x1="224" y1="10" x2="224" y2="1070" gradientUnits="userSpaceOnUse">
<stop stop-color="#46C0C9"/>
<stop offset="1" stop-color="#225F63"/>
</linearGradient>
</defs>
</svg>
